<svg width="35" height="40" viewBox="0 0 35 40" fill="none" xmlns="http://www.w3.org/2000/svg">
<path d="M17.5001 40C20.2594 40 22.4977 37.7617 22.4977 35H12.5024C12.5024 37.7617 14.7407 40 17.5001 40ZM34.3274 28.3039C32.818 26.682 29.9938 24.2422 29.9938 16.25C29.9938 10.1797 25.7376 5.32031 19.9985 4.12813V2.5C19.9985 1.11953 18.8797 0 17.5001 0C16.1204 0 15.0016 1.11953 15.0016 2.5V4.12813C9.26255 5.32031 5.0063 10.1797 5.0063 16.25C5.0063 24.2422 2.18209 26.682 0.67271 28.3039C0.20396 28.8078 -0.00385223 29.4102 5.40147e-05 30C0.00864776 31.2812 1.01412 32.5 2.50787 32.5H32.4922C33.986 32.5 34.9922 31.2812 35 30C35.004 29.4102 34.7961 28.807 34.3274 28.3039Z" fill="#757575"/>
</svg>
