<svg width="46" height="40" viewBox="0 0 46 40" fill="none" xmlns="http://www.w3.org/2000/svg">
<path d="M22.8571 0C10.2321 0 0 8.3125 0 18.5714C0 23 1.91071 27.0536 5.08929 30.2411C3.97321 34.7411 0.241071 38.75 0.196429 38.7946C0 39 -0.0535714 39.3036 0.0625 39.5714C0.178571 39.8393 0.428571 40 0.714286 40C6.63393 40 11.0714 37.1607 13.2679 35.4107C16.1875 36.5089 19.4286 37.1429 22.8571 37.1429C35.4821 37.1429 45.7143 28.8304 45.7143 18.5714C45.7143 8.3125 35.4821 0 22.8571 0ZM11.4286 21.4286C9.84821 21.4286 8.57143 20.1518 8.57143 18.5714C8.57143 16.9911 9.84821 15.7143 11.4286 15.7143C13.0089 15.7143 14.2857 16.9911 14.2857 18.5714C14.2857 20.1518 13.0089 21.4286 11.4286 21.4286ZM22.8571 21.4286C21.2768 21.4286 20 20.1518 20 18.5714C20 16.9911 21.2768 15.7143 22.8571 15.7143C24.4375 15.7143 25.7143 16.9911 25.7143 18.5714C25.7143 20.1518 24.4375 21.4286 22.8571 21.4286ZM34.2857 21.4286C32.7054 21.4286 31.4286 20.1518 31.4286 18.5714C31.4286 16.9911 32.7054 15.7143 34.2857 15.7143C35.8661 15.7143 37.1429 16.9911 37.1429 18.5714C37.1429 20.1518 35.8661 21.4286 34.2857 21.4286Z" fill="#757575"/>
</svg>
