<svg width="20" height="18" viewBox="0 0 20 18" fill="none" xmlns="http://www.w3.org/2000/svg">
<path d="M19.9051 4.35423V15.5508C19.9051 16.5811 19.0692 17.4169 18.039 17.4169H1.8661C0.835857 17.4169 0 16.5811 0 15.5508V4.35423C0 3.32399 0.835857 2.48813 1.8661 2.48813H5.28728L5.76547 1.20908C6.03761 0.482075 6.73351 0 7.51105 0H12.3901C13.1677 0 13.8636 0.482075 14.1357 1.20908L14.6178 2.48813H18.039C19.0692 2.48813 19.9051 3.32399 19.9051 4.35423ZM14.6178 9.95253C14.6178 7.37886 12.5262 5.28728 9.95253 5.28728C7.37887 5.28728 5.28728 7.37886 5.28728 9.95253C5.28728 12.5262 7.37887 14.6178 9.95253 14.6178C12.5262 14.6178 14.6178 12.5262 14.6178 9.95253ZM13.3737 9.95253C13.3737 11.8381 11.8381 13.3737 9.95253 13.3737C8.06699 13.3737 6.53135 11.8381 6.53135 9.95253C6.53135 8.06699 8.06699 6.53134 9.95253 6.53134C11.8381 6.53134 13.3737 8.06699 13.3737 9.95253Z" fill="black"/>
</svg>
